<svg width="27" height="22" viewBox="0 0 27 22" fill="none" xmlns="http://www.w3.org/2000/svg">
<path id="Vector" d="M8.34167 22H4.88889V7.82222L2.65833 2.44444H0V0H4.30833L6.325 4.88889H26.3694L22 13.475C23.0389 13.638 23.9099 14.1167 24.6131 14.9111C25.3155 15.7056 25.6667 16.6426 25.6667 17.7222C25.6667 18.9037 25.2544 19.912 24.4298 20.7472C23.6044 21.5824 22.6009 22 21.4194 22C20.2176 22 19.2044 21.5824 18.3798 20.7472C17.5544 19.912 17.1417 18.9037 17.1417 17.7222C17.1417 17.3148 17.1926 16.938 17.2944 16.5917C17.3963 16.2454 17.5389 15.9093 17.7222 15.5833L13.7194 15.2167L8.34167 22ZM19.3722 13.2917L22.3972 7.33333L7.33333 7.36389L9.44167 12.375L19.3722 13.2917ZM7.33333 13.0778V19.525L10.9694 14.9722L8.00556 14.6972L7.33333 13.0778ZM21.3889 19.5556C21.9185 19.5556 22.3565 19.3771 22.7028 19.0202C23.0491 18.6641 23.2222 18.2315 23.2222 17.7222C23.2222 17.1926 23.0491 16.7546 22.7028 16.4083C22.3565 16.062 21.9185 15.8889 21.3889 15.8889C20.8796 15.8889 20.447 16.062 20.0909 16.4083C19.734 16.7546 19.5556 17.1926 19.5556 17.7222C19.5556 18.2315 19.734 18.6641 20.0909 19.0202C20.447 19.3771 20.8796 19.5556 21.3889 19.5556ZM19.3722 13.2917L9.44167 12.375L19.3722 13.2917Z" fill="#FF9A62"/>
</svg>
