<svg width="24" height="24" viewBox="0 0 24 24" fill="none" xmlns="http://www.w3.org/2000/svg">
<g id="bxs:category">
<path id="Vector" d="M4 9H10C10.2652 9 10.5196 8.89464 10.7071 8.70711C10.8946 8.51957 11 8.26522 11 8V2C11 1.73478 10.8946 1.48043 10.7071 1.29289C10.5196 1.10536 10.2652 1 10 1H4C3.73478 1 3.48043 1.10536 3.29289 1.29289C3.10536 1.48043 3 1.73478 3 2V8C3 8.26522 3.10536 8.51957 3.29289 8.70711C3.48043 8.89464 3.73478 9 4 9ZM14 9H20C20.2652 9 20.5196 8.89464 20.7071 8.70711C20.8946 8.51957 21 8.26522 21 8V2C21 1.73478 20.8946 1.48043 20.7071 1.29289C20.5196 1.10536 20.2652 1 20 1H14C13.7348 1 13.4804 1.10536 13.2929 1.29289C13.1054 1.48043 13 1.73478 13 2V8C13 8.26522 13.1054 8.51957 13.2929 8.70711C13.4804 8.89464 13.7348 9 14 9ZM4 19H10C10.2652 19 10.5196 18.8946 10.7071 18.7071C10.8946 18.5196 11 18.2652 11 18V12C11 11.7348 10.8946 11.4804 10.7071 11.2929C10.5196 11.1054 10.2652 11 10 11H4C3.73478 11 3.48043 11.1054 3.29289 11.2929C3.10536 11.4804 3 11.7348 3 12V18C3 18.2652 3.10536 18.5196 3.29289 18.7071C3.48043 18.8946 3.73478 19 4 19ZM17 19C19.206 19 21 17.206 21 15C21 12.794 19.206 11 17 11C14.794 11 13 12.794 13 15C13 17.206 14.794 19 17 19Z" fill="#FF9A62"/>
</g>
</svg>
