<svg width="22" height="22" viewBox="0 0 22 22" fill="none" xmlns="http://www.w3.org/2000/svg">
<g id="mdi:cards-heart-outline">
<path id="Vector" d="M11.0917 17.0042L11 17.0958L10.8992 17.0042C6.54501 13.0533 3.66668 10.4408 3.66668 7.79167C3.66668 5.95833 5.04168 4.58333 6.87501 4.58333C8.28668 4.58333 9.66168 5.5 10.1475 6.74667H11.8525C12.3383 5.5 13.7133 4.58333 15.125 4.58333C16.9583 4.58333 18.3333 5.95833 18.3333 7.79167C18.3333 10.4408 15.455 13.0533 11.0917 17.0042ZM15.125 2.75C13.53 2.75 11.9992 3.4925 11 4.65667C10.0008 3.4925 8.47001 2.75 6.87501 2.75C4.05168 2.75 1.83334 4.95917 1.83334 7.79167C1.83334 11.2475 4.95001 14.08 9.67084 18.3608L11 19.5708L12.3292 18.3608C17.05 14.08 20.1667 11.2475 20.1667 7.79167C20.1667 4.95917 17.9483 2.75 15.125 2.75Z" fill="#FF9A62"/>
</g>
</svg>
